<svg width="82" height="90" viewBox="0 0 82 90" fill="none" xmlns="http://www.w3.org/2000/svg">
<path d="M45.0752 75C40.9152 75 37.0165 74.2175 33.379 72.6525C29.7415 71.0875 26.564 68.945 23.8465 66.225C21.129 63.505 18.9865 60.3275 17.419 56.6925C15.8515 53.0575 15.0702 49.16 15.0752 45C15.0802 40.84 15.8627 36.9425 17.4227 33.3075C18.9827 29.6725 21.1252 26.495 23.8502 23.775C26.5752 21.055 29.7502 18.9125 33.3752 17.3475C37.0002 15.7825 40.899 15 45.0715 15C49.379 15 53.4815 15.89 57.379 17.67C61.2765 19.4475 64.674 21.9275 67.5715 25.11V18.03C67.5715 17.495 67.7515 17.0488 68.1115 16.6913C68.4715 16.3338 68.9165 16.155 69.4465 16.155C69.9765 16.155 70.4227 16.3338 70.7852 16.6913C71.1477 17.0488 71.3265 17.495 71.3215 18.03V28.7025C71.3215 29.5725 71.034 30.295 70.459 30.87C69.884 31.445 69.1615 31.7325 68.2915 31.7325H57.6227C57.0877 31.7325 56.6415 31.5525 56.284 31.1925C55.9265 30.8325 55.7477 30.3862 55.7477 29.8537C55.7477 29.3212 55.9265 28.8763 56.284 28.5188C56.6415 28.1613 57.0877 27.9812 57.6227 27.9787H65.0477C62.4377 25.1037 59.4252 22.8475 56.0102 21.21C52.6002 19.57 48.9552 18.75 45.0752 18.75C37.7602 18.75 31.5565 21.2975 26.464 26.3925C21.3715 31.4875 18.824 37.69 18.8215 45C18.819 52.31 21.3665 58.5137 26.464 63.6112C31.5615 68.7087 37.764 71.255 45.0715 71.25C51.2515 71.25 56.7202 69.3125 61.4777 65.4375C66.2352 61.5625 69.294 56.645 70.654 50.685C70.8215 50.115 71.1065 49.6775 71.509 49.3725C71.914 49.0625 72.3765 48.9462 72.8965 49.0237C73.4765 49.0987 73.899 49.3713 74.164 49.8413C74.429 50.3113 74.484 50.8225 74.329 51.375C72.9015 58.285 69.469 63.95 64.0315 68.37C58.594 72.79 52.274 75 45.0715 75M46.9465 44.22L58.1965 55.47C58.5465 55.82 58.734 56.25 58.759 56.76C58.784 57.2725 58.5965 57.7275 58.1965 58.125C57.7965 58.525 57.354 58.725 56.869 58.725C56.384 58.725 55.9427 58.525 55.5452 58.125L44.1077 46.6875C43.7802 46.3625 43.5465 46.025 43.4065 45.675C43.2665 45.325 43.1965 44.9487 43.1965 44.5462V28.125C43.1965 27.5925 43.3765 27.1463 43.7365 26.7863C44.0965 26.4263 44.5415 26.2475 45.0715 26.25C45.6015 26.2525 46.0477 26.4313 46.4102 26.7863C46.7727 27.1413 46.9515 27.5875 46.9465 28.125V44.22Z" fill="#FFD99D"/>
</svg>
