<svg width="76" height="64" viewBox="0 0 76 64" fill="none" xmlns="http://www.w3.org/2000/svg">
<g filter="url(#filter0_d_1483_2431)">
<path d="M56.5454 46.6667H50.3636C49.4879 46.6667 48.7543 46.368 48.1629 45.7707C47.5715 45.1733 47.2748 44.435 47.2727 43.5555C47.2707 42.6761 47.5674 41.9378 48.1629 41.3404C48.7584 40.7431 49.492 40.4444 50.3636 40.4444H56.5454V34.2222C56.5454 33.3407 56.8422 32.6024 57.4356 32.0071C58.0291 31.4118 58.7627 31.1132 59.6364 31.1111C60.5101 31.109 61.2447 31.4077 61.8402 32.0071C62.4357 32.6065 62.7314 33.3449 62.7273 34.2222V40.4444H68.9091C69.7848 40.4444 70.5194 40.7431 71.1129 41.3404C71.7064 41.9378 72.0021 42.6761 72 43.5555C71.9979 44.435 71.7012 45.1744 71.1098 45.7738C70.5184 46.3732 69.7848 46.6708 68.9091 46.6667H62.7273V52.8889C62.7273 53.7704 62.4305 54.5098 61.8371 55.1071C61.2436 55.7044 60.5101 56.0021 59.6364 56C58.7627 55.9979 58.0291 55.6992 57.4356 55.104C56.8422 54.5087 56.5454 53.7704 56.5454 52.8889V46.6667ZM10.1818 24.8889H59.6364V12.4444H10.1818V24.8889ZM10.1818 49.7778C8.48182 49.7778 7.02703 49.169 5.81745 47.9515C4.60788 46.7341 4.00206 45.2687 4 43.5555V6.22222C4 4.51111 4.60582 3.04681 5.81745 1.82933C7.02909 0.611851 8.48388 0.00207407 10.1818 0H59.6364C61.3364 0 62.7922 0.609777 64.0038 1.82933C65.2154 3.04889 65.8202 4.51318 65.8182 6.22222V21.7778C65.8182 22.6593 65.5214 23.3987 64.928 23.996C64.3345 24.5933 63.601 24.891 62.7273 24.8889H56.5454C52.2697 24.8889 48.6255 26.4061 45.6129 29.4404C42.6003 32.4748 41.093 36.1428 41.0909 40.4444V46.6667C41.0909 47.5481 40.7942 48.2875 40.2007 48.8849C39.6073 49.4822 38.8737 49.7798 38 49.7778H10.1818Z" fill="#FFD99D"/>
</g>
<defs>
<filter id="filter0_d_1483_2431" x="0" y="0" width="76" height="64" filterUnits="userSpaceOnUse" color-interpolation-filters="sRGB">
<feFlood flood-opacity="0" result="BackgroundImageFix"/>
<feColorMatrix in="SourceAlpha" type="matrix" values="0 0 0 0 0 0 0 0 0 0 0 0 0 0 0 0 0 0 127 0" result="hardAlpha"/>
<feOffset dy="4"/>
<feGaussianBlur stdDeviation="2"/>
<feComposite in2="hardAlpha" operator="out"/>
<feColorMatrix type="matrix" values="0 0 0 0 0 0 0 0 0 0 0 0 0 0 0 0 0 0 0.25 0"/>
<feBlend mode="normal" in2="BackgroundImageFix" result="effect1_dropShadow_1483_2431"/>
<feBlend mode="normal" in="SourceGraphic" in2="effect1_dropShadow_1483_2431" result="shape"/>
</filter>
</defs>
</svg>
