<svg width="63" height="73" viewBox="0 0 63 73" fill="none" xmlns="http://www.w3.org/2000/svg">
<path fill-rule="evenodd" clip-rule="evenodd" d="M23.9875 1.25276C26.3533 -0.495593 29.8524 -0.478458 33.7569 1.71284L54.3994 13.2976C59.1493 15.9636 63.0001 22.447 63.0001 27.7785V50.948C63 55.0227 61.4991 57.861 59.0858 59.1379L59.0916 59.1539L38.2357 71.7041L38.2309 71.688C35.9077 72.9176 32.7381 72.6999 29.2432 70.7387L8.60071 59.1539C3.85074 56.4881 0.000198262 50.0046 0 44.673V21.5035C0 17.3076 1.59027 14.4214 4.13063 13.2024L23.9875 1.25276ZM27.2657 9.436C18.2406 4.37101 10.9245 8.47704 10.9245 18.6073V37.9152C10.9246 43.2469 14.7752 49.7303 19.5252 52.3961L36.7266 62.0501C45.7518 67.1152 53.0687 63.009 53.0688 52.8788V33.5709C53.0688 28.2393 49.218 21.756 44.4681 19.09L27.2657 9.436Z" fill="#FFD99D"/>
</svg>
