<svg width="73" height="72" viewBox="0 0 73 72" fill="none" xmlns="http://www.w3.org/2000/svg">
<mask id="mask0_1483_2422" style="mask-type:luminance" maskUnits="userSpaceOnUse" x="5" y="11" width="64" height="56">
<path d="M30.4168 49.5L39.5418 52.5C39.5418 52.5 62.3543 48 65.396 48C68.4377 48 68.4377 51 65.396 54C62.3543 57 51.7085 66 42.5835 66C33.4585 66 27.3752 61.5 21.2918 61.5H6.0835" stroke="white" stroke-width="2" stroke-linecap="round" stroke-linejoin="round"/>
<path d="M6.0835 43.5C9.12516 40.5 15.2085 36 21.2918 36C27.3752 36 41.8231 42 44.1043 45C46.3856 48 39.5418 52.5 39.5418 52.5M24.3335 27V15C24.3335 14.2044 24.654 13.4413 25.2244 12.8787C25.7948 12.3161 26.5685 12 27.3752 12H63.8752C64.6819 12 65.4555 12.3161 66.0259 12.8787C66.5964 13.4413 66.9168 14.2044 66.9168 15V39" stroke="white" stroke-width="2" stroke-linecap="round" stroke-linejoin="round"/>
<path d="M38.021 12H53.2293V25.5H38.021V12Z" fill="#555555" stroke="white" stroke-width="2" stroke-linecap="round" stroke-linejoin="round"/>
</mask>
<g mask="url(#mask0_1483_2422)">
<path d="M0 0H73V72H0V0Z" fill="#FFD99D"/>
</g>
</svg>
