<svg preserveAspectRatio="none" width="100%" height="100%" overflow="visible" style="display: block;" viewBox="0 0 79 79" fill="none" xmlns="http://www.w3.org/2000/svg">
<g id="logos:facebook" clip-path="url(#clip0_0_15)">
<path id="Vector" d="M79 39.5C79 17.6849 61.3151 0 39.5 0C17.6849 0 0 17.6849 0 39.5C0 59.2154 14.4447 75.557 33.3281 78.5201V50.918H23.2988V39.5H33.3281V30.7977C33.3281 20.898 39.2254 15.4297 48.248 15.4297C52.5696 15.4297 57.0898 16.2012 57.0898 16.2012V25.9219H52.1091C47.2022 25.9219 45.6719 28.9668 45.6719 32.0907V39.5H56.627L54.8757 50.918H45.6719V78.5201C64.5553 75.557 79 59.2157 79 39.5Z" fill="var(--fill-0, #1877F2)"/>
<path id="Vector_2" d="M54.8757 50.918L56.627 39.5H45.6719V32.0907C45.6719 28.9665 47.2022 25.9219 52.1091 25.9219H57.0898V16.2012C57.0898 16.2012 52.5696 15.4297 48.2477 15.4297C39.2254 15.4297 33.3281 20.898 33.3281 30.7977V39.5H23.2988V50.918H33.3281V78.5201C35.3698 78.8401 37.4334 79.0005 39.5 79C41.5666 79.0005 43.6302 78.8401 45.6719 78.5201V50.918H54.8757Z" fill="var(--fill-0, white)"/>
</g>
<defs>
<clipPath id="clip0_0_15">
<rect width="79" height="79" fill="white"/>
</clipPath>
</defs>
</svg>
