<svg preserveAspectRatio="none" width="100%" height="100%" overflow="visible" style="display: block;" viewBox="0 0 79 79" fill="none" xmlns="http://www.w3.org/2000/svg">
<g id="logos:netflix-icon">
<g clip-path="url(#clip0_0_7)">
<path id="Vector" d="M0 0H78.9704V78.9704H0V0Z" fill="var(--fill-0, black)"/>
<path id="Vector_2" d="M43.7203 12.7372L43.6996 24.5752L43.6787 36.4131L42.7047 33.6651L42.7029 33.6599L41.4444 60.0144C42.6819 63.5089 43.3448 65.3743 43.3522 65.3818C43.3617 65.3916 44.0672 65.4342 44.9192 65.4765C47.5009 65.6046 50.7004 65.8789 53.1275 66.1807C53.6894 66.2504 54.173 66.2862 54.2023 66.26C54.2313 66.2341 54.2471 54.1807 54.2375 39.475L54.2196 12.7372H43.7203ZM24.7301 12.7017V39.4667C24.7301 54.1875 24.7446 66.2461 24.7622 66.2637C24.7798 66.2813 25.6914 66.1952 26.7881 66.0724C27.8845 65.9496 29.4003 65.7968 30.1561 65.7329C31.3152 65.6351 34.7757 65.4126 35.1763 65.4101C35.2929 65.4095 35.3003 64.8084 35.3173 54.074L35.3352 42.7381L36.1724 45.1071L36.4687 45.9444L37.7268 19.5963L37.2945 18.3743C36.6487 16.5478 36.0024 14.7216 35.3556 12.8955L35.2862 12.7017H24.7301Z" fill="var(--fill-0, #B1060F)" stroke="var(--stroke-0, black)" stroke-width="0.912203"/>
<path id="Vector_3" d="M24.7301 12.7017V27.7256L35.3136 55.8002C35.3149 55.1568 35.3161 54.8093 35.3173 54.074L35.3352 42.7381L36.1724 45.1071C40.8334 58.2958 43.3374 65.3669 43.3522 65.3818C43.3617 65.3916 44.0672 65.4342 44.9192 65.4765C47.5009 65.6046 50.7004 65.8789 53.1275 66.1807C53.6894 66.2504 54.173 66.2862 54.2023 66.26C54.2221 66.2421 54.2354 60.3319 54.2387 51.9947L43.7046 21.7093L43.6996 24.5752L43.6787 36.4131L42.7047 33.6651C41.753 30.98 41.1176 29.1843 37.2945 18.3743C36.6487 16.5478 36.0024 14.7216 35.3556 12.8955L35.2862 12.7017H24.7301Z" fill="url(#paint0_radial_0_7)"/>
<path id="Vector_4" d="M24.7304 12.7017L35.3352 42.7517V42.7381L36.1724 45.1071C40.8334 58.2958 43.3374 65.3669 43.3522 65.3818C43.3617 65.3916 44.0672 65.4342 44.9192 65.4765C47.5009 65.6046 50.7004 65.8789 53.1275 66.1807C53.6867 66.2501 54.1675 66.2856 54.2014 66.2603L43.6784 36.4079V36.4131L42.7044 33.6651C41.7527 30.98 41.1173 29.1843 37.2942 18.3743C36.2659 15.4673 35.3935 13.0023 35.3553 12.8955L35.2858 12.7017H24.7304Z" fill="var(--fill-0, #E50914)"/>
<path id="Vector_5" d="M43.7203 12.7372L43.6996 24.5752L43.6787 36.4131L42.7047 33.6651L42.7029 33.6599L41.4444 60.0144C42.6819 63.5089 43.3448 65.3743 43.3522 65.3818C43.3617 65.3916 44.0672 65.4342 44.9192 65.4765C47.5009 65.6046 50.7004 65.8789 53.1275 66.1807C53.6894 66.2504 54.173 66.2862 54.2023 66.26C54.2313 66.2341 54.2471 54.1807 54.2375 39.475L54.2196 12.7372H43.7203ZM24.7301 12.7017V39.4667C24.7301 54.1875 24.7446 66.2461 24.7622 66.2637C24.7798 66.2813 25.6914 66.1952 26.7881 66.0724C27.8845 65.9496 29.4003 65.7968 30.1561 65.7329C31.3152 65.6351 34.7757 65.4126 35.1763 65.4101C35.2929 65.4095 35.3003 64.8084 35.3173 54.074L35.3352 42.7381L36.1724 45.1071L36.4687 45.9444L37.7268 19.5963L37.2945 18.3743C36.6487 16.5478 36.0024 14.7216 35.3556 12.8955L35.2862 12.7017H24.7301Z" fill="var(--fill-0, #B1060F)" stroke="var(--stroke-0, black)" stroke-width="0.912203"/>
<path id="Vector_6" d="M24.7301 12.7017V27.7256L35.3136 55.8002C35.3149 55.1568 35.3161 54.8093 35.3173 54.074L35.3352 42.7381L36.1724 45.1071C40.8334 58.2958 43.3374 65.3669 43.3522 65.3818C43.3617 65.3916 44.0672 65.4342 44.9192 65.4765C47.5009 65.6046 50.7004 65.8789 53.1275 66.1807C53.6894 66.2504 54.173 66.2862 54.2023 66.26C54.2221 66.2421 54.2354 60.3319 54.2387 51.9947L43.7046 21.7093L43.6996 24.5752L43.6787 36.4131L42.7047 33.6651C41.753 30.98 41.1176 29.1843 37.2945 18.3743C36.6487 16.5478 36.0024 14.7216 35.3556 12.8955L35.2862 12.7017H24.7301Z" fill="url(#paint1_radial_0_7)"/>
<path id="Vector_7" d="M24.7304 12.7017L35.3352 42.7517V42.7381L36.1724 45.1071C40.8334 58.2958 43.3374 65.3669 43.3522 65.3818C43.3617 65.3916 44.0672 65.4342 44.9192 65.4765C47.5009 65.6046 50.7004 65.8789 53.1275 66.1807C53.6867 66.2501 54.1675 66.2856 54.2014 66.2603L43.6784 36.4079V36.4131L42.7044 33.6651C41.7527 30.98 41.1173 29.1843 37.2942 18.3743C36.2659 15.4673 35.3935 13.0023 35.3553 12.8955L35.2858 12.7017H24.7304Z" fill="var(--fill-0, #E50914)"/>
</g>
</g>
<defs>
<radialGradient id="paint0_radial_0_7" cx="0" cy="0" r="1" gradientUnits="userSpaceOnUse" gradientTransform="translate(38.9946 21.6487) scale(20.7853 20.7855)">
<stop/>
<stop offset="1" stop-opacity="0"/>
</radialGradient>
<radialGradient id="paint1_radial_0_7" cx="0" cy="0" r="1" gradientUnits="userSpaceOnUse" gradientTransform="translate(38.9946 21.6487) scale(20.7853 20.7855)">
<stop/>
<stop offset="1" stop-opacity="0"/>
</radialGradient>
<clipPath id="clip0_0_7">
<rect width="79" height="79" rx="39.5" fill="white"/>
</clipPath>
</defs>
</svg>
