<svg preserveAspectRatio="none" width="100%" height="100%" overflow="visible" style="display: block;" viewBox="0 0 59.3396 60" fill="none" xmlns="http://www.w3.org/2000/svg">
<path id="Vector" d="M30 60C25.84 60 21.9413 59.2175 18.3038 57.6525C14.6663 56.0875 11.4888 53.945 8.77127 51.225C6.05378 48.505 3.91127 45.3275 2.34377 41.6925C0.776274 38.0575 -0.00497615 34.16 2.38474e-05 30C0.00502385 25.84 0.787524 21.9425 2.34752 18.3075C3.90752 14.6725 6.05002 11.495 8.77502 8.775C11.5 6.055 14.675 3.9125 18.3 2.3475C21.925 0.7825 25.8238 0 29.9963 0C34.3038 0 38.4063 0.89 42.3038 2.67C46.2013 4.4475 49.5988 6.9275 52.4963 10.11V3.03C52.4963 2.495 52.6763 2.04875 53.0363 1.69125C53.3963 1.33375 53.8413 1.155 54.3713 1.155C54.9013 1.155 55.3475 1.33375 55.71 1.69125C56.0725 2.04875 56.2513 2.495 56.2463 3.03V13.7025C56.2463 14.5725 55.9588 15.295 55.3838 15.87C54.8088 16.445 54.0863 16.7325 53.2163 16.7325H42.5475C42.0125 16.7325 41.5663 16.5525 41.2088 16.1925C40.8513 15.8325 40.6725 15.3862 40.6725 14.8537C40.6725 14.3212 40.8513 13.8763 41.2088 13.5188C41.5663 13.1613 42.0125 12.9812 42.5475 12.9787H49.9725C47.3625 10.1037 44.35 7.8475 40.935 6.21C37.525 4.57 33.88 3.75 30 3.75C22.685 3.75 16.4813 6.2975 11.3888 11.3925C6.29627 16.4875 3.74877 22.69 3.74627 30C3.74377 37.31 6.29128 43.5137 11.3888 48.6112C16.4863 53.7087 22.6888 56.255 29.9963 56.25C36.1763 56.25 41.645 54.3125 46.4025 50.4375C51.16 46.5625 54.2188 41.645 55.5788 35.685C55.7463 35.115 56.0313 34.6775 56.4338 34.3725C56.8388 34.0625 57.3013 33.9462 57.8213 34.0237C58.4013 34.0987 58.8238 34.3713 59.0888 34.8413C59.3538 35.3113 59.4088 35.8225 59.2538 36.375C57.8263 43.285 54.3938 48.95 48.9563 53.37C43.5188 57.79 37.1988 60 29.9963 60M31.8713 29.22L43.1213 40.47C43.4713 40.82 43.6588 41.25 43.6838 41.76C43.7088 42.2725 43.5213 42.7275 43.1213 43.125C42.7213 43.525 42.2788 43.725 41.7938 43.725C41.3088 43.725 40.8675 43.525 40.47 43.125L29.0325 31.6875C28.705 31.3625 28.4713 31.025 28.3313 30.675C28.1913 30.325 28.1213 29.9487 28.1213 29.5462V13.125C28.1213 12.5925 28.3013 12.1463 28.6613 11.7863C29.0213 11.4263 29.4663 11.2475 29.9963 11.25C30.5263 11.2525 30.9725 11.4313 31.335 11.7863C31.6975 12.1413 31.8763 12.5875 31.8713 13.125V29.22Z" fill="var(--fill-0, #FFD99D)"/>
</svg>
